<?xml version="1.0" standalone="no"?>
<!DOCTYPE svg PUBLIC "-//W3C//DTD SVG 20010904//EN"
 "http://www.w3.org/TR/2001/REC-SVG-20010904/DTD/svg10.dtd">
<svg version="1.0" xmlns="http://www.w3.org/2000/svg"
 width="405.000000pt" height="404.000000pt" viewBox="0 0 405.000000 404.000000"
 preserveAspectRatio="xMidYMid meet">

<g transform="translate(0.000000,404.000000) scale(0.100000,-0.100000)"
fill="#000000" stroke="none">
<path d="M1530 2958 c-41 -84 -182 -371 -313 -638 -132 -267 -261 -530 -288
-585 l-49 -100 123 -3 c116 -3 123 -2 137 19 14 21 108 200 362 691 62 120
116 218 119 218 3 0 212 -393 464 -872 252 -480 471 -896 487 -924 l29 -52
106 40 c58 21 110 41 115 44 5 3 0 20 -10 37 -11 18 -52 95 -92 172 -40 77
-89 172 -110 210 -21 39 -63 120 -95 180 -32 61 -74 142 -95 180 -46 87 -119
226 -198 375 -469 892 -603 1145 -610 1152 -5 5 -42 -60 -82 -144z"/>
<path d="M1886 3058 c20 -29 58 -81 83 -114 l46 -62 255 -4 c228 -4 260 -6
303 -24 106 -44 156 -113 157 -212 0 -114 -44 -197 -124 -233 -34 -15 -67 -19
-189 -19 -82 0 -147 -4 -145 -8 2 -5 95 -178 206 -385 l204 -377 140 0 c125 0
139 2 134 16 -3 9 -71 130 -151 269 -80 139 -145 256 -145 261 0 5 26 20 58
34 99 42 181 140 218 259 21 65 28 205 15 275 -33 177 -157 302 -351 355 -69
19 -102 21 -413 21 l-339 0 38 -52z"/>
</g>
</svg>
